<?xml version="1.0" encoding="utf-8"?>
<!-- Generator: Adobe Illustrator 15.1.0, SVG Export Plug-In . SVG Version: 6.00 Build 0)  -->
<!DOCTYPE svg PUBLIC "-//W3C//DTD SVG 1.1//EN" "http://www.w3.org/Graphics/SVG/1.1/DTD/svg11.dtd">
<svg version="1.1" id="Person_1_" xmlns="http://www.w3.org/2000/svg" xmlns:xlink="http://www.w3.org/1999/xlink" x="0px" y="0px"
	 width="1024px" height="1200px" viewBox="0 0 1024 1200" enable-background="new 0 0 1024 1048" xml:space="preserve">
<g id="Shadow" opacity="0.051">
	<g>
		<path d="M591.666,755.811c121.24-193.07,142.289-300.13,105.247-366.656c5.69-18.986-26.884-44.762-33.529-50.919
			c-6.644-6.16-13.197-10.03-12.53-16.463c1.41-11.043-5.832-26.906-14.565-39.85c26.332-24.203,56.851-48.897,81.754-119.746
			c20.262-67.468-23.692-103.979-53.174-122.056c-7.032-4.311,9.41-5.392-6.52-14.859c-15.924-9.468-53.621-13.526-68.268-13.429
			c-1.09-4.538-9.982-9.694-15.013-9.502c-5.031,0.191-14.688,11.091-19.718,11.281c-29.82-1.613-62.872,20.248-82.701,52.591
			c-19.831,32.346-32.898,77.024-27.967,146.43c-3.185,0.58-10.748,3.384-18.416,6.422c-9.513,3.77-10.064,12.288-25.166,12.404
			c-5.055,0.038-22.335,2.679-42.891,3.919c-20.558,1.241-27.904,11.554-31.385,16.266
			c-166.692,17.045-145.092,415.237-136.399,463.817c8.692,48.583-62.21,329.468-51.917,370.646
			c17.844,76.177,205.071,95.097,246.933,88.232c40.042-11.333,140.194-315.481,151.86-334.696
			c13.726-9.61,16.844-17.269,16.161-30.992C573.596,795.387,586.177,780.057,591.666,755.811z"/>
	</g>
</g>
<g id="Outline_copy">
	<g>
		<path fill="#FFFFFF" d="M582.059,754.895c60.621-99.279,158.068-303.79,105.245-362.993c5.689-18.988-26.886-44.763-33.528-50.921
			c-6.643-6.156-13.201-10.029-12.531-16.463c1.411-11.041-5.832-26.905-14.566-39.85c26.333-24.202,56.853-48.896,81.752-119.745
			c20.263-67.468-23.691-103.979-53.172-122.055c-7.03-4.311,9.406-5.393-6.516-14.86c-15.929-9.467-53.629-13.526-68.273-13.428
			c-1.089-4.537-9.98-9.693-15.013-9.503c-5.028,0.19-14.689,11.089-19.715,11.281c-29.823-1.614-62.873,20.247-82.704,52.59
			c-19.828,32.346-32.896,77.023-27.967,146.431c-3.184,0.579-10.747,3.384-18.413,6.424c-9.514,3.769-10.062,12.287-25.168,12.404
			c-5.055,0.037-22.335,2.68-42.889,3.919c-20.559,1.241-27.901,11.553-31.387,16.265
			c-142.576,21.72-174.831,283.872-139.145,462.303c0.094-0.13-9.858,15.417-3.202,27.223
			c6.656,11.807-57.864,278.599-41.85,349.281c23.191,45.731,227.783,99.223,255.238,68.343
			c27.45-30.882,132.917-303.512,145.271-330.963c13.27-4.575,5.523-13.002,9.183-28.102
			C556.893,794.698,571.077,788.29,582.059,754.895z"/>
	</g>
</g>
<path fill="#2A3D51" d="M195.381,706.506c0,0-69.812,320.747-58.763,374.418c11.046,53.673,217.398,101.198,244.777,76.492
	C426.368,1116.834,541.799,776.4,541.799,776.4L195.381,706.506z"/>
<path fill="#995C5D" d="M189.056,716.521c0,0-15.784,19.558-4.115,26.92c75.947,47.122,322.77,94.853,334.428,89.242
	c12.807-6.172,15.908-41.531,15.908-41.531L189.056,716.521z"/>
<g id="Sweatshirt">
	<g>
		<path fill="#A06B66" d="M676.288,402.738c-47.29-39.819-192.083-145.173-264.184-145.61
			c-72.101-0.439-117.335,8.928-137.284,23.064C152.884,364.421,166.18,708.227,190.433,718.75
			c24.254,10.524,333.786,127.213,369.565,59.021C595.776,709.581,742.949,458.864,676.288,402.738z"/>
	</g>
</g>
<g id="Hood">
	<g>
		<path fill="#995C5D" d="M450.641,226.211c-12.269,2.586-27.763,5.071-37.467,10.034c-9.705,4.963-0.714,9.155-39.863,10.996
			c-39.151,1.842-53.116,11.118-52.415,20.276c-12.122,26.646,48.498,137.88,86.85,309.404c10.554-96.908-8.9-242.461,57.89-327.961
			C472.566,237.225,462.909,223.625,450.641,226.211z M665.786,373.855c-8.124-9.231-17.042-21.024-21.111-25.817
			c-4.067-4.792-14.663-15.288-16.528-27.231c-4.604-28.093-43.541-65.416-45.504-42.729
			c-11.196,95.828-108.744,253.325-173.981,302.045c23.422-8.092,99.676-75.528,113.428-83.073
			c6.23-3.412,89.846-52.598,124.272-76.526C687.392,392.015,673.912,383.086,665.786,373.855z"/>
	</g>
</g>
<g id="Strings">
	<g>
		<path fill="#E6D9D5" d="M363.974,349.112c-1.773,9.08-42.306,113.971-79.773,188.007c5.434,3.506,4.904,3.524,11.984,8.557
			c6.008-9.238,74.541-186.221,77.943-194.3C377.534,343.297,365.75,340.035,363.974,349.112z M567.942,430.401
			c-2.832,9.119-48.013,137.181-68.396,186.719c1.001-1.63,8.099,3.934,12.336,3.771c3.517-4.9,62.994-175.384,66.787-187.19
			C582.457,421.897,570.776,421.281,567.942,430.401z"/>
	</g>
</g>
<g id="Head">
	<g>
		<path fill="#E4CDB9" d="M700.09,132.985c-1.309-43.767-39.615-84.711-129.185-98.619c-89.571-13.907-109,72.704-113.513,89.55
			c-5.623,20.987-23.437,91.566,0.252,138.045c-10.625,15.543-24.28,37.612-28.332,48.693
			c-28.478,98.523-15.936,192.53-20.649,268.096c78.922-46.667,142.513-180.452,149.334-205.309
			c8.606-31.362,20.218-55.884,21.904-67.548C641.426,276.824,701.38,176.041,700.09,132.985z"/>
	</g>
</g>
<g id="T_Shirt">
	<g>
		<path fill="#364E6B" d="M463.607,412.302c-22.047-32.32-32.113-54.395-37.9-92.137c-19.445,36.924-16.319,184.714-17.043,258.587
			c45.977-26.077,107.06-84.412,151.655-211.568C543.911,402.959,497.16,409.677,463.607,412.302z"/>
	</g>
</g>
<g id="Shape_1">
	<g>
		<path fill="#46668C" d="M557.517,373.416c-8.093,6.414-18.571,32.947-93.952,38.023c-18.749-30.498-29.801-50.478-38.041-90.9
			c-0.872,1.977-6.206,20.417-6.026,20.337c3.925,22.731,23.729,67.323,36.494,86.044c33.816-4.162,68.266-7.228,94.622-31.68
			C551.21,393.359,559.148,372.121,557.517,373.416z"/>
	</g>
</g>
<g id="Shadow_1_" opacity="0.0706">
	<g>
		<path d="M608.069,287.006c-67.137,56.516-144.982,5.812-156.452-44.481c14.468,100.765,139.274,88.379,163.913,54.798
			C614.024,294.909,612.896,293.183,608.069,287.006z M451.619,242.525c-0.721-5.031-1.171-10.341-1.314-15.947
			C449.92,231.802,450.398,237.162,451.619,242.525z"/>
	</g>
</g>
<g id="Hair" opacity="0.9882">
	<g>
		<path fill="#4D442E" d="M661.229,61.08c-18.423-10.607-22.043-20.269-15.025-21.595c-21.978-14.8-73.354-9.786-77.249-9.99
			c-3.895-0.207,0.928-13.775,0.928-13.775s-26.974,11.036-37.918,15.494c-47.571,19.001-76.071,63.428-80.729,122.773
			c14.114-27.427,33.076-44.013,45.125-55.346c12.75-11.994,31.311-22.349,43.128-17.146c23.25,21.738,110.33,77.566,135.23,72.868
			c4.444,14.67-7.841,46.701-17.584,78.521c18.156-14.823,39.814-54.215,45.461-91.53C708.239,104.039,679.652,71.687,661.229,61.08
			z"/>
	</g>
</g>
<path opacity="0.07" enable-background="new    " d="M242.584,477.642l-55.589,236.763c-3.659-5.262-7.549-29.508-7.549-29.508
	L242.584,477.642z"/>
<path opacity="0.07" enable-background="new    " d="M600.36,585.151l-61.65,208.744c9.036-3.547,18.415-11.668,18.415-11.668
	L600.36,585.151z"/>
</svg>
