<?xml version="1.0" encoding="utf-8"?>
<!-- Generator: Adobe Illustrator 13.0.0, SVG Export Plug-In . SVG Version: 6.00 Build 14948)  -->
<!DOCTYPE svg PUBLIC "-//W3C//DTD SVG 1.1//EN" "http://www.w3.org/Graphics/SVG/1.1/DTD/svg11.dtd">
<svg version="1.1" id="Person_1_" xmlns="http://www.w3.org/2000/svg" xmlns:xlink="http://www.w3.org/1999/xlink" x="0px" y="0px"
	 width="1024px" height="768px" viewBox="0 0 1024 768" enable-background="new 0 0 1024 768" xml:space="preserve">
<g id="Shadow" opacity="0.051">
	<g>
		<path d="M537.881,397.267c6.608-26.587,5-39.599-1.722-45.807c-0.062-2.381-4.747-4.103-5.736-4.557s-1.883-0.65-2.048-1.41
			c-0.253-1.313-1.674-2.854-3.156-4.004c2.101-3.75,4.659-7.713,4.849-16.735c-0.216-8.462-6.603-10.984-10.646-11.943
			c-0.965-0.229,0.872-0.968-1.301-1.452s-6.63,0.465-8.298,1.025c-0.295-0.477-1.503-0.733-2.07-0.522s-1.262,1.816-1.829,2.027
			c-3.465,0.933-6.419,4.667-7.472,9.104c-1.052,4.436-0.87,10.027,2.294,17.767c-0.342,0.185-1.102,0.789-1.862,1.423
			c-0.943,0.787-0.688,1.78-2.408,2.359c-0.575,0.194-2.449,1.143-4.75,2.055c-2.301,0.912-2.753,2.365-2.974,3.033
			c-18.394,8.192-1.007,52.847,1.806,58.067c2.812,5.222,5.555,42.048,8.271,46.364c4.892,8.028,21.353,3.176,25.875,0.824
			c4.159-2.667,9.481-42.518,10.093-45.147c1.208-1.611,1.295-3.463,0.702-5.004C537.301,402.462,538.162,400.24,537.881,397.267z"
			/>
	</g>
</g>
<g id="Outline_copy">
	<g>
		<path fill="#FFFFFF" d="M536.75,397.522c3.201-13.607,6.664-40.608-1.586-45.389c-0.062-2.381-4.746-4.104-5.735-4.558
			c-0.988-0.454-1.884-0.65-2.048-1.41c-0.253-1.313-1.674-2.854-3.156-4.004c2.101-3.75,4.659-7.713,4.848-16.735
			c-0.214-8.462-6.602-10.984-10.645-11.943c-0.965-0.229,0.872-0.968-1.301-1.452c-2.174-0.484-6.63,0.465-8.299,1.025
			c-0.294-0.477-1.502-0.733-2.069-0.522c-0.566,0.211-1.262,1.816-1.829,2.027c-3.466,0.933-6.42,4.667-7.472,9.103
			s-0.87,10.027,2.293,17.767c-0.342,0.185-1.1,0.789-1.861,1.423c-0.943,0.787-0.688,1.78-2.408,2.359
			c-0.576,0.194-2.449,1.143-4.75,2.055c-2.301,0.912-2.752,2.365-2.975,3.033c-15.465,7.822-9.323,38.961,1.437,57.997
			c0.006-0.019-0.547,2.131,0.654,3.229c1.202,1.099,4.145,36.077,8.621,43.547c4.361,4.354,24.92,2.412,26.897-2.143
			c1.977-4.556,7.694-39.849,8.077-43.445c1.344-1.02,0.745-3.195,0.597-5.057C535.368,403.01,536.747,401.747,536.75,397.522z"/>
	</g>
</g>
<path fill="#2A3D51" d="M490.788,406.486c0,0,4.358,41.337,7.631,47.051c3.272,5.715,23.81,3.026,26.009-0.819
	c3.614-6.318,8.53-51.23,8.53-51.23L490.788,406.486z"/>
<path fill="#995C5D" d="M490.44,407.867c0,0-1.069,2.824,0.538,3.229c10.438,2.533,40.406-1.266,41.527-2.343
	c1.23-1.185,0.26-5.338,0.26-5.338L490.44,407.867z"/>
<g id="Sweatshirt">
	<g>
		<path fill="#A06B66" d="M534.312,353.783c-6.893-2.774-27.371-9.377-35.619-6.726c-8.249,2.651-13.062,5.416-14.811,7.777
			c-10.766,14.186,3.635,52.942,6.798,53.234c3.164,0.293,42.876,2.018,44.407-7.108
			C536.619,391.835,544.027,357.694,534.312,353.783z"/>
	</g>
</g>
<g id="Hood">
	<g>
		<path fill="#995C5D" d="M501.935,342.084c-1.304,0.755-2.979,1.619-3.9,2.549c-0.922,0.931,0.262,1.072-4.14,2.75
			c-4.4,1.677-5.647,3.259-5.225,4.279c-0.386,3.497,10.704,13.925,21.509,32.072c-2.427-11.46-10.102-27.35-5.68-39.614
			C504.851,342.521,503.239,341.328,501.935,342.084z M532.031,350.879c-1.273-0.75-2.733-1.762-3.378-2.156
			c-0.645-0.395-2.247-1.196-2.907-2.49c-1.578-3.035-7.423-5.837-6.796-3.173c2.312,11.361-2.924,32.998-8.547,41.005
			c2.371-1.801,8.551-12.358,9.838-13.734c0.583-0.623,8.287-9.372,11.321-13.395C535.179,352.144,533.305,351.629,532.031,350.879z
			"/>
	</g>
</g>
<g id="Strings">
	<g>
		<path fill="#E6D9D5" d="M496.645,359.363c0.139,1.104-0.559,14.598-2.062,24.455c0.751,0.196,0.692,0.219,1.689,0.526
			c0.34-1.278,1.532-24.053,1.618-25.104C497.976,358.191,496.508,358.26,496.645,359.363z M522.979,361.002
			c0.02,1.147-0.341,17.462-0.812,23.881c0.053-0.224,1.071,0.146,1.55-0.031c0.218-0.691,0.62-22.385,0.61-23.875
			C524.317,359.487,522.961,359.854,522.979,361.002z"/>
	</g>
</g>
<g id="Head">
	<g>
		<path fill="#E4CDB9" d="M526.923,322.092c-1.79-4.948-7.697-8.188-18.445-6.419c-10.747,1.769-9.721,12.385-9.604,14.478
			c0.144,2.607,0.755,11.333,5.201,15.752c-0.631,2.173-1.363,5.204-1.41,6.621c0.438,12.316,5.395,22.579,7.688,31.384
			c7.264-8.286,9.511-25.943,9.357-29.037c-0.192-3.903,0.215-7.138-0.03-8.533C525.614,340.714,528.684,326.96,526.923,322.092z"/>
	</g>
</g>
<g id="T_Shirt">
	<g>
		<path fill="#364E6B" d="M510.389,362.844c-3.729-2.864-5.705-5.007-7.779-9.099c-0.838,4.944,5.058,21.701,7.742,30.163
			c4.272-4.7,9.062-13.649,9.389-29.838C519.207,358.77,514.121,361.289,510.389,362.844z"/>
	</g>
</g>
<g id="Shape_1">
	<g>
		<path fill="#46668C" d="M519.653,354.886c-0.685,1.036-0.887,4.458-9.303,7.862c-3.283-2.78-5.294-4.646-7.75-8.953
			c-0.024,0.258,0.058,2.563,0.074,2.548c1.3,2.448,5.231,6.797,7.392,8.457c3.705-1.742,7.522-3.383,9.615-7.163
			C519.681,357.399,519.791,354.677,519.653,354.886z"/>
	</g>
</g>
<g id="Shadow_1_" opacity="0.0706">
	<g>
		<path d="M522.188,343.126c-5.548,8.968-16.336,6.096-19.528,0.783c5.427,10.963,19.213,4.873,20.768,0.115
			C523.163,343.805,522.97,343.65,522.188,343.126z M502.658,343.91c-0.271-0.548-0.521-1.137-0.748-1.771
			C502.062,342.75,502.317,343.343,502.658,343.91z"/>
	</g>
</g>
<g id="Hair" opacity="0.9882">
	<g>
		<path fill="#4D442E" d="M519.791,315.339c-2.501-0.521-3.276-1.488-2.524-1.903c-3.062-0.866-8.741,1.631-9.193,1.754
			s-0.41-1.607-0.41-1.607s-2.666,2.271-3.749,3.19c-4.719,3.952-6.309,10.092-4.616,17.042c0.584-3.66,2.127-6.264,3.078-8.01
			c1.006-1.847,2.737-3.725,4.281-3.574c3.469,1.611,15.504,4.722,18.171,3.252c1.057,1.509,0.854,5.626,0.935,9.624
			c1.519-2.373,2.515-7.682,1.762-12.154C526.769,318.482,522.292,315.86,519.791,315.339z"/>
	</g>
</g>
<path opacity="0.07" enable-background="new    " d="M487.601,378.587l2.525,29.115c-0.615-0.463-1.968-3.086-1.968-3.086
	L487.601,378.587z"/>
<path opacity="0.07" enable-background="new    " d="M532.479,377.457l0.783,26.144c0.898-0.743,1.665-2.022,1.665-2.022
	L532.479,377.457z"/>
</svg>
