<?xml version="1.0" encoding="utf-8"?>
<!-- Generator: Adobe Illustrator 13.0.0, SVG Export Plug-In . SVG Version: 6.00 Build 14948)  -->
<!DOCTYPE svg PUBLIC "-//W3C//DTD SVG 1.1//EN" "http://www.w3.org/Graphics/SVG/1.1/DTD/svg11.dtd">
<svg version="1.1" id="Person_1_" xmlns="http://www.w3.org/2000/svg" xmlns:xlink="http://www.w3.org/1999/xlink" x="0px" y="0px"
	 width="1024px" height="768px" viewBox="0 0 1024 768" enable-background="new 0 0 1024 768" xml:space="preserve">
<g>
	<g id="Shadow_3_" opacity="0.051">
		<g>
			<path d="M534.956,400.55c8.09-26.49,7.16-39.713,0.704-46.339c0.064-2.407-4.574-4.396-5.548-4.907
				c-0.976-0.511-1.866-0.757-1.993-1.533c-0.185-1.339-1.538-2.971-2.972-4.211c2.318-3.674,5.113-7.539,5.786-16.638
				c0.233-8.556-6.079-11.442-10.111-12.626c-0.961-0.282,0.933-0.931-1.237-1.535c-2.167-0.604-6.717,0.115-8.431,0.592
				c-0.272-0.498-1.479-0.82-2.062-0.638c-0.585,0.182-1.371,1.766-1.956,1.949c-3.547,0.758-6.729,4.371-8.028,8.792
				c-1.299,4.423-1.413,10.078,1.368,18.06c-0.354,0.17-1.152,0.739-1.956,1.338c-0.995,0.744-0.789,1.761-2.557,2.253
				c-0.592,0.165-2.534,1.023-4.906,1.821c-2.371,0.798-2.904,2.241-3.164,2.904c-19.007,7.291-3.833,53.302-1.271,58.722
				c2.562,5.423,3.163,40.613,5.677,45.114c4.511,8.367,27.068,4.644,31.759,2.51c4.336-2.601,6.43-40.752,7.188-43.377
				c1.305-1.563,1.188-3.677,0.577-4.687C534.37,405.746,535.112,403.53,534.956,400.55z"/>
		</g>
	</g>
	<g id="Outline_copy_1_">
		<g>
			<path fill="#FFFFFF" d="M533.801,400.747c3.957-13.566,8.895-40.643,0.819-45.909c0.065-2.407-4.574-4.396-5.548-4.907
				c-0.975-0.512-1.867-0.758-1.993-1.534c-0.185-1.339-1.539-2.97-2.972-4.211c2.319-3.674,5.114-7.539,5.785-16.638
				c0.235-8.555-6.079-11.441-10.11-12.625c-0.961-0.282,0.933-0.931-1.236-1.536c-2.168-0.605-6.718,0.117-8.433,0.593
				c-0.271-0.498-1.477-0.82-2.062-0.638c-0.584,0.181-1.37,1.767-1.953,1.948c-3.55,0.758-6.731,4.37-8.03,8.793
				c-1.299,4.422-1.412,10.077,1.368,18.06c-0.354,0.169-1.152,0.738-1.955,1.338c-0.996,0.744-0.79,1.76-2.558,2.253
				c-0.592,0.165-2.534,1.022-4.905,1.821c-2.371,0.797-2.905,2.24-3.164,2.904c-16.031,7.072-11.491,38.839-1.643,58.631
				c0.007-0.018-0.667,2.122,0.489,3.295c1.155,1.172,2.058,34.509,6.18,42.289c4.171,4.627,29.861,4.404,32.101-0.087
				c1.471-3.048,2.842-6.354,6.271-42.357c1.411-0.958,0.994-3.457,0.445-4.654C532.112,406.213,533.574,405.012,533.801,400.747z"
				/>
		</g>
	</g>
	<path fill="#2A3D51" d="M486.919,407.347c0,0,1.994,39.831,4.994,45.774c2.999,5.943,28.707,4.967,31.133,1.2
		c3.985-6.187,6.717-49.775,6.717-49.775L486.919,407.347z"/>
	<path fill="#55633E" d="M486.495,408.723c0,0-1.23,2.795,0.372,3.287c10.401,3.115,41.501,0.851,42.688-0.178
		c1.307-1.131-0.09-5.349-0.09-5.349L486.495,408.723z"/>
	<g id="Sweatshirt_1_">
		<g>
			<path fill="#617147" d="M533.672,356.458c-6.809-3.168-27.134-10.926-35.603-8.688c-8.47,2.237-13.478,4.771-15.367,7.062
				c-11.627,13.748,0.847,53.644,4.024,54.109c3.179,0.465,43.183,4.322,45.213-4.811
				C533.972,394.999,543.272,360.924,533.672,356.458z"/>
		</g>
	</g>
	<g id="Hood_1_">
		<g>
			<path fill="#55633E" d="M501.606,342.919c-1.356,0.693-3.095,1.477-4.075,2.366c-0.98,0.89,0.207,1.097-4.325,2.555
				c-4.533,1.459-5.877,2.99-5.504,4.042c-0.575,3.509,10.23,14.814,20.173,33.712c-1.839-11.699-8.905-28.336-3.787-40.483
				C504.527,343.515,502.964,342.227,501.606,342.919z M531.524,353.404c-1.246-0.825-2.666-1.925-3.296-2.357
				c-0.629-0.433-2.205-1.328-2.804-2.669c-1.432-3.148-7.182-6.289-6.691-3.566c1.729,11.592-4.755,32.998-10.858,40.783
				c2.489-1.693,9.335-11.86,10.708-13.182c0.623-0.598,8.867-9.021,12.145-12.92C534.633,354.848,532.77,354.229,531.524,353.404z"
				/>
		</g>
	</g>
	<g id="Strings_1_">
		<g>
			<path fill="#E6D9D5" d="M495.345,360.083c0.08,1.121-1.343,14.708-3.387,24.581c0.749,0.238,0.688,0.258,1.677,0.623
				c0.411-1.275,2.83-24.205,2.973-25.26C496.751,358.972,495.265,358.962,495.345,360.083z M521.845,363.142
				c-0.043,1.159-1.275,17.611-2.094,24.069c0.066-0.225,1.074,0.202,1.565,0.05c0.258-0.688,1.821-22.568,1.891-24.072
				C523.276,361.683,521.888,361.982,521.845,363.142z"/>
		</g>
	</g>
	<g id="Head_1_">
		<g>
			<path fill="#E7C9B0" d="M527.9,324.068c-1.543-5.091-7.335-8.676-18.28-7.463c-10.945,1.212-10.475,11.985-10.468,14.104
				c0.006,2.639,0.157,11.482,4.411,16.18c-0.753,2.16-1.654,5.182-1.777,6.61c-0.212,12.458,4.243,23.084,6.089,32.096
				c7.774-7.979,10.985-25.686,10.995-28.817c0.014-3.951,0.597-7.195,0.424-8.617C525.587,342.799,529.419,329.076,527.9,324.068z"
				/>
		</g>
	</g>
	<g id="T_Shirt_1_">
		<g>
			<path fill="#4B6360" d="M509.035,364.332c-3.611-3.09-5.493-5.36-7.37-9.603c-1.107,4.947,3.95,22.18,6.21,30.866
				c4.563-4.518,9.876-13.297,11.068-29.625C518.155,360.687,512.886,362.958,509.035,364.332z"/>
		</g>
	</g>
	<g id="Shape_1_1_">
		<g>
			<path fill="#8E9172" d="M518.813,356.789c-0.746,1.009-1.133,4.454-9.812,7.442c-3.167-2.981-5.097-4.974-7.346-9.452
				c-0.04,0.259-0.08,2.591-0.062,2.576c1.182,2.541,4.92,7.142,7.011,8.932c3.834-1.562,7.776-3.015,10.091-6.719
				C518.706,359.329,518.964,356.586,518.813,356.789z"/>
		</g>
	</g>
	<g id="Shadow_2_" opacity="0.0706">
		<g>
			<path d="M521.998,345.052c-6.079,8.759-16.817,5.284-19.759-0.25c4.896,11.358,19.139,5.943,20.962,1.224
				C522.948,345.789,522.761,345.623,521.998,345.052z M502.239,344.801c-0.244-0.567-0.466-1.175-0.66-1.828
				C501.7,343.598,501.927,344.211,502.239,344.801z"/>
		</g>
	</g>
	<g id="Hair_1_" opacity="0.9882">
		<g>
			<path fill="#4D442E" d="M521.061,316.869c-2.497-0.659-3.229-1.677-2.447-2.055c-3.048-1.038-8.913,1.18-9.376,1.281
				c-0.464,0.098-0.329-1.646-0.329-1.646s-2.812,2.15-3.954,3.02c-4.976,3.739-6.907,9.854-5.57,16.961
				c0.784-3.664,2.481-6.212,3.535-7.923c1.114-1.811,2.963-3.615,4.514-3.38c3.416,1.811,15.4,5.594,18.172,4.252
				c0.985,1.58,0.562,5.726,0.43,9.766c1.659-2.314,2.948-7.621,2.426-12.176C527.938,320.415,523.558,317.528,521.061,316.869z"/>
		</g>
	</g>
	<path opacity="0.07" enable-background="new    " d="M485.189,379.009l0.997,29.531c-0.597-0.502-1.822-3.222-1.822-3.222
		L485.189,379.009z"/>
	<path opacity="0.07" enable-background="new    " d="M530.558,380.26l-0.602,26.438c0.946-0.703,1.787-1.953,1.787-1.953
		L530.558,380.26z"/>
</g>
</svg>
